<svg width="16" height="16" viewBox="0 0 16 16" fill="none" xmlns="http://www.w3.org/2000/svg">
<path d="M12.4734 6.08172C12.4114 6.01923 12.3377 5.96964 12.2564 5.93579C12.1752 5.90195 12.088 5.88452 12 5.88452C11.912 5.88452 11.8249 5.90195 11.7436 5.93579C11.6624 5.96964 11.5887 6.01923 11.5267 6.08172L8.47337 9.13505C8.41139 9.19754 8.33766 9.24714 8.25642 9.28098C8.17518 9.31483 8.08804 9.33225 8.00003 9.33225C7.91203 9.33225 7.82489 9.31483 7.74365 9.28098C7.66241 9.24714 7.58868 9.19754 7.5267 9.13505L4.47337 6.08172C4.41139 6.01923 4.33766 5.96964 4.25642 5.93579C4.17518 5.90195 4.08804 5.88452 4.00003 5.88452C3.91203 5.88452 3.82489 5.90195 3.74365 5.93579C3.66241 5.96964 3.58868 6.01923 3.5267 6.08172C3.40253 6.20663 3.33284 6.3756 3.33284 6.55172C3.33284 6.72784 3.40253 6.89681 3.5267 7.02172L6.5867 10.0817C6.9617 10.4563 7.47003 10.6666 8.00003 10.6666C8.53004 10.6666 9.03837 10.4563 9.41337 10.0817L12.4734 7.02172C12.5975 6.89681 12.6672 6.72784 12.6672 6.55172C12.6672 6.3756 12.5975 6.20663 12.4734 6.08172Z" fill="#5F6774"/>
</svg>
