<svg width="32" height="32" viewBox="0 0 32 32" fill="none" xmlns="http://www.w3.org/2000/svg">
<path d="M26.5644 20.6314L24.1396 11.7844C23.6219 9.89186 22.4936 8.22907 20.9345 7.06061C19.3754 5.89216 17.475 5.2852 15.5358 5.33633C13.5966 5.38746 11.73 6.09375 10.2331 7.34278C8.73622 8.59181 7.69504 10.3118 7.27528 12.229L5.3998 20.773C5.30905 21.1869 5.31127 21.6162 5.40628 22.0292C5.50129 22.4421 5.68668 22.8282 5.94877 23.1589C6.21086 23.4897 6.54295 23.7566 6.92056 23.9401C7.29816 24.1235 7.71164 24.2188 8.13048 24.2189H11.4944C11.7085 25.286 12.2803 26.2454 13.1132 26.9345C13.946 27.6236 14.9886 28 16.0642 28C17.1398 28 18.1824 27.6236 19.0152 26.9345C19.848 26.2454 20.4199 25.286 20.634 24.2189H23.8701C24.3011 24.2187 24.7262 24.1178 25.1123 23.9239C25.4983 23.73 25.8349 23.4484 26.0958 23.1012C26.3567 22.7539 26.5348 22.3504 26.6163 21.9219C26.6977 21.4935 26.6794 21.0519 26.5644 20.6314ZM16.0642 26.1071C15.4876 26.1047 14.9258 25.922 14.4557 25.584C13.9856 25.246 13.6302 24.7692 13.438 24.2189H18.6904C18.4982 24.7692 18.1428 25.246 17.6727 25.584C17.2026 25.922 16.6408 26.1047 16.0642 26.1071ZM24.6115 21.9578C24.5245 22.0746 24.4118 22.1691 24.2822 22.2339C24.1527 22.2987 24.0099 22.3318 23.8655 22.3308H8.13048C7.99084 22.3307 7.85298 22.299 7.72708 22.2378C7.60118 22.1766 7.49047 22.0876 7.4031 21.9773C7.31573 21.867 7.25394 21.7383 7.2223 21.6006C7.19065 21.4629 7.18995 21.3198 7.22026 21.1818L9.09573 12.6378C9.42621 11.1331 10.2441 9.78347 11.4193 8.80336C12.5945 7.82325 14.0597 7.26896 15.5818 7.22859C17.104 7.18822 18.5958 7.6641 19.8201 8.58057C21.0444 9.49705 21.9309 10.8015 22.3388 12.2866L24.7636 21.1337C24.8032 21.2736 24.81 21.4209 24.7836 21.5639C24.7573 21.707 24.6983 21.8418 24.6115 21.9578Z" fill="#5F6774"/>
</svg>
