<svg width="20" height="20" viewBox="0 0 20 20" fill="none" xmlns="http://www.w3.org/2000/svg">
<path d="M4.63956 12.9721C4.50819 12.9721 4.37708 12.922 4.27676 12.8217C4.07637 12.6213 4.07637 12.2965 4.27676 12.0961L12.2959 4.07691C12.4961 3.87652 12.8212 3.87652 13.0216 4.07691C13.2219 4.2773 13.2219 4.60213 13.0216 4.80252L5.00237 12.8217C4.9023 12.9218 4.77093 12.9721 4.63956 12.9721Z" fill="black"/>
<path d="M3.84717 16.6676C3.81151 16.6676 3.77533 16.6638 3.73915 16.6561C3.46204 16.5965 3.28552 16.3238 3.34504 16.0467L4.13788 12.3511C4.1974 12.074 4.47143 11.898 4.74726 11.957C5.02436 12.0166 5.20089 12.2893 5.14137 12.5664L4.34853 16.2619C4.29696 16.5029 4.084 16.6676 3.84717 16.6676Z" fill="black"/>
<path d="M7.54227 15.8748C7.4109 15.8748 7.27979 15.8247 7.17947 15.7244C6.97908 15.524 6.97908 15.1992 7.17947 14.9988L15.1987 6.97986C15.3988 6.77947 15.7239 6.77947 15.9243 6.97986C16.1247 7.18025 16.1247 7.50508 15.9243 7.70547L7.90534 15.7244C7.80501 15.8247 7.67364 15.8748 7.54227 15.8748Z" fill="black"/>
<path d="M3.8462 16.6676C3.60938 16.6676 3.39667 16.5029 3.34484 16.2619C3.28557 15.9848 3.46184 15.7121 3.73895 15.6526L7.43449 14.8597C7.71185 14.801 7.9846 14.977 8.04387 15.2538C8.10314 15.5309 7.92687 15.8037 7.64976 15.8632L3.95422 16.6561C3.91805 16.664 3.88187 16.6676 3.8462 16.6676Z" fill="black"/>
<path d="M14.1099 9.30707C13.9785 9.30707 13.8472 9.25703 13.7471 9.15671L10.8444 6.25401C10.644 6.05362 10.644 5.72879 10.8444 5.5284C11.0445 5.32801 11.3699 5.32801 11.57 5.5284L14.4727 8.4311C14.6731 8.63149 14.6731 8.95632 14.4727 9.15671C14.3726 9.25703 14.2413 9.30707 14.1099 9.30707Z" fill="black"/>
<path d="M15.5615 7.85583C15.4301 7.85583 15.2987 7.8058 15.1984 7.70548C14.998 7.50509 14.998 7.18025 15.1984 6.97961C15.484 6.69403 15.6413 6.30737 15.6413 5.89119C15.6413 5.47502 15.484 5.08835 15.1984 4.80277C14.9126 4.51694 14.5259 4.35966 14.1097 4.35966C13.6935 4.35966 13.3069 4.51694 13.0213 4.80277C12.8212 5.00316 12.4963 5.00342 12.2954 4.80277C12.095 4.60238 12.095 4.27755 12.2954 4.07691C12.7747 3.59736 13.419 3.33333 14.1097 3.33333C14.8002 3.33333 15.4447 3.59736 15.924 4.07691C16.4036 4.5562 16.6676 5.20047 16.6676 5.89119C16.6676 6.58191 16.4036 7.22618 15.924 7.70548C15.8242 7.80554 15.6928 7.85583 15.5615 7.85583Z" fill="black"/>
</svg>
