<svg width="20" height="20" viewBox="0 0 20 20" fill="none" xmlns="http://www.w3.org/2000/svg">
<path fill-rule="evenodd" clip-rule="evenodd" d="M11.7171 5.83333C11.971 5.83333 12.1769 6.01387 12.1769 6.23657V7.8947C12.1769 8.1174 11.971 8.29794 11.7171 8.29794C11.4631 8.29794 11.2573 8.1174 11.2573 7.8947V7.44785H3.79318C3.53924 7.44785 3.33337 7.26732 3.33337 7.04462C3.33337 6.82192 3.53924 6.64138 3.79318 6.64138H11.2573V6.23657C11.2573 6.01387 11.4631 5.83333 11.7171 5.83333ZM16.4456 7.04071C16.4481 7.2634 16.2442 7.44568 15.9903 7.44784L13.5169 7.46887C13.263 7.47103 13.0551 7.29225 13.0527 7.06956C13.0502 6.84687 13.2541 6.66459 13.508 6.66243L15.9813 6.6414C16.2353 6.63924 16.4431 6.81802 16.4456 7.04071ZM8.04169 8.49562C8.29564 8.49562 8.5015 8.67616 8.5015 8.89886V9.70643V9.70734V10.557C8.5015 10.7797 8.29564 10.9602 8.04169 10.9602C7.78775 10.9602 7.58188 10.7797 7.58188 10.557V10.1101H3.79318C3.53924 10.1101 3.33337 9.92961 3.33337 9.70691C3.33337 9.48422 3.53924 9.30367 3.79318 9.30367H7.58188V8.89886C7.58188 8.67616 7.78775 8.49562 8.04169 8.49562ZM9.39524 9.70691C9.39524 9.48422 9.60111 9.30367 9.85504 9.30367H15.9858C16.2398 9.30367 16.4456 9.48422 16.4456 9.70691C16.4456 9.92961 16.2398 10.1101 15.9858 10.1101H9.85504C9.60111 10.1101 9.39524 9.92961 9.39524 9.70691ZM10.4779 11.7021C10.7318 11.7021 10.9377 11.8826 10.9377 12.1053V13.7634C10.9377 13.9861 10.7318 14.1667 10.4779 14.1667C10.2239 14.1667 10.0181 13.9861 10.0181 13.7634V13.3166H4.01423C3.76028 13.3166 3.55443 13.136 3.55443 12.9133C3.55443 12.6907 3.76028 12.5101 4.01423 12.5101H10.0181V12.1053C10.0181 11.8826 10.2239 11.7021 10.4779 11.7021ZM16.6667 12.9109C16.6682 13.1336 16.4636 13.3152 16.2097 13.3166L12.3015 13.3377C12.0475 13.3391 11.8404 13.1596 11.8388 12.9369C11.8373 12.7143 12.0419 12.5326 12.2958 12.5312L16.204 12.5101C16.458 12.5088 16.6651 12.6882 16.6667 12.9109Z" fill="black"/>
</svg>
