<svg width="24" height="24" viewBox="0 0 24 24" fill="none" xmlns="http://www.w3.org/2000/svg">
<path d="M16.3333 20H7.66667C5.64533 20 4 18.355 4 16.3342V10.5928C4 9.3731 4.604 8.23736 5.616 7.55419L9.94933 4.63086C11.194 3.78971 12.8053 3.78971 14.0513 4.63086L18.384 7.55419C19.396 8.2367 20 9.3731 20 10.5928V16.3342C20 18.355 18.3547 20 16.3333 20ZM12 6.00121C11.676 6.00121 11.3507 6.09719 11.0687 6.28848L6.73467 9.21114C6.27533 9.52173 6 10.0376 6 10.5922V16.3335C6 17.2526 6.74733 17.9998 7.66667 17.9998H16.3333C17.2527 17.9998 18 17.2526 18 16.3335V10.5928C18 10.0383 17.7253 9.5224 17.2653 9.21181L12.932 6.28848C12.6487 6.09719 12.324 6.00121 12 6.00121Z" fill="#5F6774"/>
</svg>
