<svg width="61" height="48" viewBox="0 0 61 48" fill="none" xmlns="http://www.w3.org/2000/svg">
<path d="M2.784 35V12.44H5.408V32.696H16.896V35H2.784Z" fill="#4031C2"/>
<path d="M14.848 35L14.848 12.44H17.056L25.728 28.728L34.336 12.44H36.544V35H34.112V17.368L26.592 31.512L24.864 31.512L17.248 17.4L17.248 35H14.848Z" fill="#4031C2"/>
<path d="M45.92 35.288C47.6907 35.288 49.2907 35.064 50.72 34.616C52.1493 34.1467 53.3867 33.4747 54.432 32.6L53.504 30.488C52.416 31.32 51.2747 31.9387 50.08 32.344C48.8853 32.7493 47.4987 32.952 45.92 32.952C44 32.952 42.5813 32.6 41.664 31.896C40.7253 31.1707 40.256 30.2213 40.256 29.048C40.256 28.1093 40.5973 27.3627 41.28 26.808C41.9413 26.2533 43.0613 25.816 44.64 25.496L47.968 24.824C49.9733 24.3973 51.4773 23.704 52.48 22.744C53.4613 21.7627 53.952 20.4613 53.952 18.84C53.952 17.496 53.6107 16.3227 52.928 15.32C52.224 14.3173 51.2533 13.5387 50.016 12.984C48.7787 12.4293 47.3493 12.152 45.728 12.152C44.2133 12.152 42.8053 12.3973 41.504 12.888C40.2027 13.3573 39.104 14.04 38.208 14.936L39.136 16.984C40.096 16.1093 41.1093 15.48 42.176 15.096C43.2427 14.6907 44.4373 14.488 45.76 14.488C47.4453 14.488 48.7893 14.8827 49.792 15.672C50.7947 16.44 51.296 17.464 51.296 18.744C51.296 19.768 50.9867 20.5787 50.368 21.176C49.728 21.7733 48.6933 22.2107 47.264 22.488L43.936 23.192C41.7813 23.64 40.192 24.3227 39.168 25.24C38.1227 26.136 37.6 27.3627 37.6 28.92C37.6 30.1787 37.9413 31.288 38.624 32.248C39.2853 33.208 40.2453 33.9547 41.504 34.488C42.7413 35.0213 44.2133 35.288 45.92 35.288Z" fill="#4031C2"/>
<path d="M57.392 35.192C56.8373 35.192 56.368 35 55.984 34.616C55.6 34.232 55.408 33.7627 55.408 33.208C55.408 32.6533 55.6 32.184 55.984 31.8C56.368 31.416 56.8373 31.224 57.392 31.224C57.9253 31.224 58.3733 31.416 58.736 31.8C59.12 32.184 59.312 32.6533 59.312 33.208C59.312 33.7627 59.12 34.232 58.736 34.616C58.3733 35 57.9253 35.192 57.392 35.192Z" fill="#4031C2"/>
</svg>
