<svg width="32" height="32" viewBox="0 0 32 32" fill="none" xmlns="http://www.w3.org/2000/svg">
<path d="M15.4008 25.4704C9.84896 25.4704 5.33334 20.9548 5.33334 15.403C5.33334 9.85121 9.84896 5.33334 15.4008 5.33334C20.9526 5.33334 25.4682 9.84896 25.4682 15.4008C25.4682 20.9526 20.9526 25.4704 15.4008 25.4704ZM15.4008 7.25063C10.9054 7.25063 7.25063 10.9076 7.25063 15.4008C7.25063 19.8939 10.9076 23.5509 15.4008 23.5509C19.8939 23.5509 23.5509 19.8939 23.5509 15.4008C23.5509 10.9076 19.8962 7.25063 15.4008 7.25063Z" fill="#5F6774"/>
<path d="M25.7086 26.6685C25.4636 26.6685 25.2186 26.5741 25.0298 26.3875L22.872 24.2297C22.4966 23.8544 22.4966 23.2475 22.872 22.8744C23.2451 22.499 23.8543 22.499 24.2274 22.8744L26.3852 25.0321C26.7605 25.4075 26.7605 26.0144 26.3852 26.3875C26.2008 26.5763 25.9536 26.6685 25.7086 26.6685Z" fill="#5F6774"/>
</svg>
