<svg width="24" height="24" viewBox="0 0 24 24" fill="none" xmlns="http://www.w3.org/2000/svg">
<mask id="path-1-outside-1_23_601" maskUnits="userSpaceOnUse" x="3" y="3" width="18" height="18" fill="black">
<rect fill="white" x="3" y="3" width="18" height="18"/>
<path d="M12.7467 20H11.2533C10.7487 20 10.3227 19.622 10.2627 19.12L10.1033 17.8693C9.78533 17.766 9.47867 17.6387 9.18733 17.49L8.19133 18.264C7.78733 18.5767 7.21867 18.5407 6.868 18.18L5.818 17.13C5.46 16.7827 5.424 16.214 5.73667 15.8107L6.51067 14.814C6.36133 14.5227 6.234 14.216 6.13133 13.898L4.878 13.7387C4.378 13.6773 4 13.2513 4 12.7467V11.2533C4 10.7487 4.378 10.3227 4.88 10.2627L6.13067 10.1033C6.234 9.78533 6.36133 9.47867 6.51 9.18733L5.73667 8.19133C5.42333 7.78733 5.46 7.218 5.82133 6.86733L6.87133 5.81733C7.21867 5.45933 7.788 5.424 8.19067 5.736L9.18667 6.51067C9.478 6.362 9.78467 6.23467 10.1033 6.13133L10.2627 4.878C10.3227 4.378 10.7487 4 11.2533 4H12.7467C13.2513 4 13.6773 4.378 13.7373 4.88L13.8967 6.13067C14.2153 6.234 14.522 6.36133 14.8133 6.51L15.8093 5.736C16.214 5.42333 16.782 5.45933 17.1327 5.82067L18.1827 6.87067C18.5407 7.218 18.5767 7.78667 18.264 8.19L17.49 9.18667C17.6393 9.478 17.7667 9.78467 17.8693 10.1027L19.1227 10.262C19.622 10.3227 20 10.7487 20 11.2533V12.7467C20 13.2513 19.622 13.6773 19.12 13.7373L17.8693 13.8967C17.766 14.2147 17.6387 14.5213 17.49 14.8127L18.264 15.8087C18.5773 16.2127 18.5407 16.7813 18.1793 17.132L17.1293 18.182C16.782 18.54 16.2127 18.5767 15.81 18.2633L14.8133 17.4893C14.522 17.6387 14.2153 17.766 13.8973 17.8687L13.738 19.122C13.6773 19.622 13.2513 20 12.7467 20ZM9.15333 16.76C9.20867 16.76 9.26533 16.774 9.316 16.802C9.68333 17.0073 10.0813 17.1727 10.4987 17.2927C10.6267 17.3293 10.7207 17.4387 10.7373 17.5707L10.924 19.0373C10.944 19.2047 11.0887 19.3333 11.2533 19.3333H12.7467C12.9113 19.3333 13.056 19.2047 13.0753 19.0407L13.2627 17.5713C13.2793 17.4393 13.3733 17.33 13.5013 17.2933C13.9187 17.1733 14.3167 17.008 14.684 16.8027C14.8007 16.7373 14.946 16.7487 15.0507 16.8307L16.2173 17.7373C16.3513 17.8413 16.5393 17.8327 16.654 17.7147L17.7107 16.658C17.8313 16.5407 17.8407 16.3527 17.7367 16.218L16.83 15.0513C16.748 14.946 16.7367 14.8013 16.802 14.6847C17.0073 14.3173 17.1727 13.9193 17.2927 13.502C17.3293 13.374 17.4387 13.28 17.5707 13.2633L19.0373 13.0767C19.2047 13.056 19.3333 12.9113 19.3333 12.7467V11.2533C19.3333 11.0887 19.2047 10.944 19.0407 10.9247L17.5713 10.7373C17.4393 10.7207 17.33 10.6267 17.2933 10.4987C17.1733 10.0813 17.008 9.68333 16.8027 9.316C16.7373 9.19933 16.748 9.05467 16.8307 8.94933L17.7373 7.78267C17.842 7.648 17.8327 7.46 17.7153 7.34667L16.6587 6.29C16.542 6.16867 16.3533 6.15933 16.2187 6.264L15.052 7.17067C14.946 7.25267 14.8013 7.264 14.6847 7.19867C14.3187 6.99333 13.9207 6.82867 13.502 6.708C13.374 6.67133 13.28 6.562 13.2633 6.43L13.0767 4.96333C13.056 4.79533 12.9113 4.66667 12.7467 4.66667H11.2533C11.0887 4.66667 10.944 4.79533 10.9247 4.95933L10.7373 6.42867C10.7207 6.56067 10.6267 6.67 10.4987 6.70733C10.08 6.82733 9.682 6.99267 9.316 7.19733C9.19933 7.26333 9.05467 7.25133 8.94867 7.17L7.782 6.26333C7.64733 6.15867 7.46 6.168 7.346 6.28533L6.28933 7.34267C6.16867 7.46 6.15933 7.648 6.26333 7.78267L7.17 8.94933C7.252 9.05467 7.26333 9.19933 7.198 9.316C6.992 9.68333 6.82733 10.0813 6.70733 10.4987C6.67067 10.6267 6.56133 10.7207 6.42933 10.7373L4.96267 10.924C4.79533 10.944 4.66667 11.0887 4.66667 11.2533V12.7467C4.66667 12.9113 4.79533 13.056 4.95933 13.0753L6.42867 13.2627C6.56067 13.2793 6.67 13.3733 6.70667 13.5013C6.82667 13.9187 6.992 14.3167 7.19733 14.684C7.26267 14.8007 7.252 14.9453 7.16933 15.0507L6.26267 16.2173C6.158 16.352 6.16733 16.54 6.28467 16.6533L7.34133 17.71C7.458 17.8307 7.64533 17.84 7.78133 17.736L8.948 16.8293C9.00867 16.784 9.08067 16.76 9.15333 16.76Z"/>
</mask>
<path d="M12.7467 20H11.2533C10.7487 20 10.3227 19.622 10.2627 19.12L10.1033 17.8693C9.78533 17.766 9.47867 17.6387 9.18733 17.49L8.19133 18.264C7.78733 18.5767 7.21867 18.5407 6.868 18.18L5.818 17.13C5.46 16.7827 5.424 16.214 5.73667 15.8107L6.51067 14.814C6.36133 14.5227 6.234 14.216 6.13133 13.898L4.878 13.7387C4.378 13.6773 4 13.2513 4 12.7467V11.2533C4 10.7487 4.378 10.3227 4.88 10.2627L6.13067 10.1033C6.234 9.78533 6.36133 9.47867 6.51 9.18733L5.73667 8.19133C5.42333 7.78733 5.46 7.218 5.82133 6.86733L6.87133 5.81733C7.21867 5.45933 7.788 5.424 8.19067 5.736L9.18667 6.51067C9.478 6.362 9.78467 6.23467 10.1033 6.13133L10.2627 4.878C10.3227 4.378 10.7487 4 11.2533 4H12.7467C13.2513 4 13.6773 4.378 13.7373 4.88L13.8967 6.13067C14.2153 6.234 14.522 6.36133 14.8133 6.51L15.8093 5.736C16.214 5.42333 16.782 5.45933 17.1327 5.82067L18.1827 6.87067C18.5407 7.218 18.5767 7.78667 18.264 8.19L17.49 9.18667C17.6393 9.478 17.7667 9.78467 17.8693 10.1027L19.1227 10.262C19.622 10.3227 20 10.7487 20 11.2533V12.7467C20 13.2513 19.622 13.6773 19.12 13.7373L17.8693 13.8967C17.766 14.2147 17.6387 14.5213 17.49 14.8127L18.264 15.8087C18.5773 16.2127 18.5407 16.7813 18.1793 17.132L17.1293 18.182C16.782 18.54 16.2127 18.5767 15.81 18.2633L14.8133 17.4893C14.522 17.6387 14.2153 17.766 13.8973 17.8687L13.738 19.122C13.6773 19.622 13.2513 20 12.7467 20ZM9.15333 16.76C9.20867 16.76 9.26533 16.774 9.316 16.802C9.68333 17.0073 10.0813 17.1727 10.4987 17.2927C10.6267 17.3293 10.7207 17.4387 10.7373 17.5707L10.924 19.0373C10.944 19.2047 11.0887 19.3333 11.2533 19.3333H12.7467C12.9113 19.3333 13.056 19.2047 13.0753 19.0407L13.2627 17.5713C13.2793 17.4393 13.3733 17.33 13.5013 17.2933C13.9187 17.1733 14.3167 17.008 14.684 16.8027C14.8007 16.7373 14.946 16.7487 15.0507 16.8307L16.2173 17.7373C16.3513 17.8413 16.5393 17.8327 16.654 17.7147L17.7107 16.658C17.8313 16.5407 17.8407 16.3527 17.7367 16.218L16.83 15.0513C16.748 14.946 16.7367 14.8013 16.802 14.6847C17.0073 14.3173 17.1727 13.9193 17.2927 13.502C17.3293 13.374 17.4387 13.28 17.5707 13.2633L19.0373 13.0767C19.2047 13.056 19.3333 12.9113 19.3333 12.7467V11.2533C19.3333 11.0887 19.2047 10.944 19.0407 10.9247L17.5713 10.7373C17.4393 10.7207 17.33 10.6267 17.2933 10.4987C17.1733 10.0813 17.008 9.68333 16.8027 9.316C16.7373 9.19933 16.748 9.05467 16.8307 8.94933L17.7373 7.78267C17.842 7.648 17.8327 7.46 17.7153 7.34667L16.6587 6.29C16.542 6.16867 16.3533 6.15933 16.2187 6.264L15.052 7.17067C14.946 7.25267 14.8013 7.264 14.6847 7.19867C14.3187 6.99333 13.9207 6.82867 13.502 6.708C13.374 6.67133 13.28 6.562 13.2633 6.43L13.0767 4.96333C13.056 4.79533 12.9113 4.66667 12.7467 4.66667H11.2533C11.0887 4.66667 10.944 4.79533 10.9247 4.95933L10.7373 6.42867C10.7207 6.56067 10.6267 6.67 10.4987 6.70733C10.08 6.82733 9.682 6.99267 9.316 7.19733C9.19933 7.26333 9.05467 7.25133 8.94867 7.17L7.782 6.26333C7.64733 6.15867 7.46 6.168 7.346 6.28533L6.28933 7.34267C6.16867 7.46 6.15933 7.648 6.26333 7.78267L7.17 8.94933C7.252 9.05467 7.26333 9.19933 7.198 9.316C6.992 9.68333 6.82733 10.0813 6.70733 10.4987C6.67067 10.6267 6.56133 10.7207 6.42933 10.7373L4.96267 10.924C4.79533 10.944 4.66667 11.0887 4.66667 11.2533V12.7467C4.66667 12.9113 4.79533 13.056 4.95933 13.0753L6.42867 13.2627C6.56067 13.2793 6.67 13.3733 6.70667 13.5013C6.82667 13.9187 6.992 14.3167 7.19733 14.684C7.26267 14.8007 7.252 14.9453 7.16933 15.0507L6.26267 16.2173C6.158 16.352 6.16733 16.54 6.28467 16.6533L7.34133 17.71C7.458 17.8307 7.64533 17.84 7.78133 17.736L8.948 16.8293C9.00867 16.784 9.08067 16.76 9.15333 16.76Z" fill="#8E8E93"/>
<path d="M12.7467 20H11.2533C10.7487 20 10.3227 19.622 10.2627 19.12L10.1033 17.8693C9.78533 17.766 9.47867 17.6387 9.18733 17.49L8.19133 18.264C7.78733 18.5767 7.21867 18.5407 6.868 18.18L5.818 17.13C5.46 16.7827 5.424 16.214 5.73667 15.8107L6.51067 14.814C6.36133 14.5227 6.234 14.216 6.13133 13.898L4.878 13.7387C4.378 13.6773 4 13.2513 4 12.7467V11.2533C4 10.7487 4.378 10.3227 4.88 10.2627L6.13067 10.1033C6.234 9.78533 6.36133 9.47867 6.51 9.18733L5.73667 8.19133C5.42333 7.78733 5.46 7.218 5.82133 6.86733L6.87133 5.81733C7.21867 5.45933 7.788 5.424 8.19067 5.736L9.18667 6.51067C9.478 6.362 9.78467 6.23467 10.1033 6.13133L10.2627 4.878C10.3227 4.378 10.7487 4 11.2533 4H12.7467C13.2513 4 13.6773 4.378 13.7373 4.88L13.8967 6.13067C14.2153 6.234 14.522 6.36133 14.8133 6.51L15.8093 5.736C16.214 5.42333 16.782 5.45933 17.1327 5.82067L18.1827 6.87067C18.5407 7.218 18.5767 7.78667 18.264 8.19L17.49 9.18667C17.6393 9.478 17.7667 9.78467 17.8693 10.1027L19.1227 10.262C19.622 10.3227 20 10.7487 20 11.2533V12.7467C20 13.2513 19.622 13.6773 19.12 13.7373L17.8693 13.8967C17.766 14.2147 17.6387 14.5213 17.49 14.8127L18.264 15.8087C18.5773 16.2127 18.5407 16.7813 18.1793 17.132L17.1293 18.182C16.782 18.54 16.2127 18.5767 15.81 18.2633L14.8133 17.4893C14.522 17.6387 14.2153 17.766 13.8973 17.8687L13.738 19.122C13.6773 19.622 13.2513 20 12.7467 20ZM9.15333 16.76C9.20867 16.76 9.26533 16.774 9.316 16.802C9.68333 17.0073 10.0813 17.1727 10.4987 17.2927C10.6267 17.3293 10.7207 17.4387 10.7373 17.5707L10.924 19.0373C10.944 19.2047 11.0887 19.3333 11.2533 19.3333H12.7467C12.9113 19.3333 13.056 19.2047 13.0753 19.0407L13.2627 17.5713C13.2793 17.4393 13.3733 17.33 13.5013 17.2933C13.9187 17.1733 14.3167 17.008 14.684 16.8027C14.8007 16.7373 14.946 16.7487 15.0507 16.8307L16.2173 17.7373C16.3513 17.8413 16.5393 17.8327 16.654 17.7147L17.7107 16.658C17.8313 16.5407 17.8407 16.3527 17.7367 16.218L16.83 15.0513C16.748 14.946 16.7367 14.8013 16.802 14.6847C17.0073 14.3173 17.1727 13.9193 17.2927 13.502C17.3293 13.374 17.4387 13.28 17.5707 13.2633L19.0373 13.0767C19.2047 13.056 19.3333 12.9113 19.3333 12.7467V11.2533C19.3333 11.0887 19.2047 10.944 19.0407 10.9247L17.5713 10.7373C17.4393 10.7207 17.33 10.6267 17.2933 10.4987C17.1733 10.0813 17.008 9.68333 16.8027 9.316C16.7373 9.19933 16.748 9.05467 16.8307 8.94933L17.7373 7.78267C17.842 7.648 17.8327 7.46 17.7153 7.34667L16.6587 6.29C16.542 6.16867 16.3533 6.15933 16.2187 6.264L15.052 7.17067C14.946 7.25267 14.8013 7.264 14.6847 7.19867C14.3187 6.99333 13.9207 6.82867 13.502 6.708C13.374 6.67133 13.28 6.562 13.2633 6.43L13.0767 4.96333C13.056 4.79533 12.9113 4.66667 12.7467 4.66667H11.2533C11.0887 4.66667 10.944 4.79533 10.9247 4.95933L10.7373 6.42867C10.7207 6.56067 10.6267 6.67 10.4987 6.70733C10.08 6.82733 9.682 6.99267 9.316 7.19733C9.19933 7.26333 9.05467 7.25133 8.94867 7.17L7.782 6.26333C7.64733 6.15867 7.46 6.168 7.346 6.28533L6.28933 7.34267C6.16867 7.46 6.15933 7.648 6.26333 7.78267L7.17 8.94933C7.252 9.05467 7.26333 9.19933 7.198 9.316C6.992 9.68333 6.82733 10.0813 6.70733 10.4987C6.67067 10.6267 6.56133 10.7207 6.42933 10.7373L4.96267 10.924C4.79533 10.944 4.66667 11.0887 4.66667 11.2533V12.7467C4.66667 12.9113 4.79533 13.056 4.95933 13.0753L6.42867 13.2627C6.56067 13.2793 6.67 13.3733 6.70667 13.5013C6.82667 13.9187 6.992 14.3167 7.19733 14.684C7.26267 14.8007 7.252 14.9453 7.16933 15.0507L6.26267 16.2173C6.158 16.352 6.16733 16.54 6.28467 16.6533L7.34133 17.71C7.458 17.8307 7.64533 17.84 7.78133 17.736L8.948 16.8293C9.00867 16.784 9.08067 16.76 9.15333 16.76Z" stroke="#8E8E93" stroke-width="0.4" mask="url(#path-1-outside-1_23_601)"/>
<path d="M8.9 12C8.9 13.7094 10.2906 15.1 12 15.1C13.7094 15.1 15.1 13.7094 15.1 12C15.1 10.2906 13.7094 8.9 12 8.9C10.2906 8.9 8.9 10.2906 8.9 12ZM9.7 12C9.7 10.7316 10.7316 9.7 12 9.7C13.2684 9.7 14.3 10.7316 14.3 12C14.3 13.2684 13.2684 14.3 12 14.3C10.7316 14.3 9.7 13.2684 9.7 12Z" fill="#8E8E93" stroke="#8E8E93" stroke-width="0.2"/>
</svg>
