<svg width="20" height="20" viewBox="0 0 20 20" fill="none" xmlns="http://www.w3.org/2000/svg">
<path fill-rule="evenodd" clip-rule="evenodd" d="M14.4287 6.57143C14.4287 6.33486 14.2367 6.14286 14.0001 6.14286H6.0001C5.76353 6.14286 5.57153 6.33486 5.57153 6.57143V14.2857C5.57153 14.7783 5.76696 15.2509 6.11553 15.5989C6.46353 15.9474 6.9361 16.1429 7.42868 16.1429H12.5715C13.0641 16.1429 13.5367 15.9474 13.8847 15.5989C14.2332 15.2509 14.4287 14.7783 14.4287 14.2857C14.4287 11.7143 14.4287 6.57143 14.4287 6.57143ZM13.5715 7V14.2857C13.5715 14.5509 13.4664 14.8051 13.2784 14.9926C13.091 15.1806 12.8367 15.2857 12.5715 15.2857C11.119 15.2857 8.88125 15.2857 7.42868 15.2857C7.16353 15.2857 6.90925 15.1806 6.72182 14.9926C6.53382 14.8051 6.42868 14.5509 6.42868 14.2857V7H13.5715Z" fill="black"/>
<path fill-rule="evenodd" clip-rule="evenodd" d="M12.5714 7C12.808 7 13 6.808 13 6.57143C13 6.57143 13 6 13 5.42857C13 5.012 12.8343 4.612 12.54 4.31714C12.2451 4.02286 11.8451 3.85714 11.4286 3.85714C10.5783 3.85714 9.42171 3.85714 8.57143 3.85714C8.15486 3.85714 7.75486 4.02286 7.46 4.31714C7.16571 4.612 7 5.012 7 5.42857V6.57143C7 6.808 7.192 7 7.42857 7H12.5714ZM12.1429 6.14286H7.85714V5.42857C7.85714 5.23886 7.93257 5.05771 8.06629 4.92343C8.20057 4.78971 8.38171 4.71429 8.57143 4.71429H11.4286C11.6183 4.71429 11.7994 4.78971 11.9337 4.92343C12.0674 5.05771 12.1429 5.23886 12.1429 5.42857V6.14286Z" fill="black"/>
<path fill-rule="evenodd" clip-rule="evenodd" d="M14.5714 6.14286H5.42857C5.192 6.14286 5 6.33486 5 6.57143C5 6.808 5.192 7 5.42857 7H14.5714C14.808 7 15 6.808 15 6.57143C15 6.33486 14.808 6.14286 14.5714 6.14286Z" fill="black"/>
<path fill-rule="evenodd" clip-rule="evenodd" d="M8.14294 9.14286V13.1429C8.14294 13.3794 8.33494 13.5714 8.57152 13.5714C8.80809 13.5714 9.00009 13.3794 9.00009 13.1429V9.14286C9.00009 8.90628 8.80809 8.71428 8.57152 8.71428C8.33494 8.71428 8.14294 8.90628 8.14294 9.14286Z" fill="black"/>
<path fill-rule="evenodd" clip-rule="evenodd" d="M11 9.14286V13.1429C11 13.3794 11.192 13.5714 11.4286 13.5714C11.6651 13.5714 11.8571 13.3794 11.8571 13.1429V9.14286C11.8571 8.90628 11.6651 8.71428 11.4286 8.71428C11.192 8.71428 11 8.90628 11 9.14286Z" fill="black"/>
</svg>
