<svg width="12" height="7" viewBox="0 0 12 7" fill="none" xmlns="http://www.w3.org/2000/svg">
<path d="M11.5917 0.841668C11.5142 0.763561 11.422 0.701565 11.3205 0.659258C11.2189 0.616951 11.11 0.595169 11 0.595169C10.89 0.595169 10.7811 0.616951 10.6795 0.659258C10.578 0.701565 10.4858 0.763561 10.4083 0.841668L6.59168 4.65833C6.51421 4.73644 6.42204 4.79844 6.32049 4.84074C6.21894 4.88305 6.11002 4.90483 6.00001 4.90483C5.89 4.90483 5.78108 4.88305 5.67953 4.84074C5.57798 4.79844 5.48581 4.73644 5.40834 4.65833L1.59168 0.841668C1.51421 0.763561 1.42204 0.701565 1.32049 0.659258C1.21894 0.616951 1.11002 0.595169 1.00001 0.595169C0.89 0.595169 0.781078 0.616951 0.679529 0.659258C0.577979 0.701565 0.485812 0.763561 0.408343 0.841668C0.253134 0.997803 0.166016 1.20901 0.166016 1.42917C0.166016 1.64932 0.253134 1.86053 0.408343 2.01667L4.23334 5.84167C4.70209 6.30984 5.33751 6.5728 6.00001 6.5728C6.66251 6.5728 7.29792 6.30984 7.76668 5.84167L11.5917 2.01667C11.7469 1.86053 11.834 1.64932 11.834 1.42917C11.834 1.20901 11.7469 0.997803 11.5917 0.841668Z" fill="#5F6774"/>
</svg>
