<svg width="16" height="16" viewBox="0 0 16 16" fill="none" xmlns="http://www.w3.org/2000/svg">
<path d="M10.616 9.2C10.664 8.804 10.7 8.408 10.7 8C10.7 7.592 10.664 7.196 10.616 6.8H12.644C12.74 7.184 12.8 7.586 12.8 8C12.8 8.414 12.74 8.816 12.644 9.2M9.554 12.536C9.914 11.87 10.19 11.15 10.382 10.4H12.152C11.576 11.39 10.658 12.158 9.554 12.536ZM9.404 9.2H6.596C6.536 8.804 6.5 8.408 6.5 8C6.5 7.592 6.536 7.19 6.596 6.8H9.404C9.458 7.19 9.5 7.592 9.5 8C9.5 8.408 9.458 8.804 9.404 9.2ZM8 12.776C7.502 12.056 7.1 11.258 6.854 10.4H9.146C8.9 11.258 8.498 12.056 8 12.776ZM5.6 5.6H3.848C4.418 4.604 5.342 3.836 6.44 3.464C6.08 4.13 5.81 4.85 5.6 5.6ZM3.848 10.4H5.6C5.81 11.15 6.08 11.87 6.44 12.536C5.342 12.158 4.418 11.39 3.848 10.4ZM3.356 9.2C3.26 8.816 3.2 8.414 3.2 8C3.2 7.586 3.26 7.184 3.356 6.8H5.384C5.336 7.196 5.3 7.592 5.3 8C5.3 8.408 5.336 8.804 5.384 9.2M8 3.218C8.498 3.938 8.9 4.742 9.146 5.6H6.854C7.1 4.742 7.502 3.938 8 3.218ZM12.152 5.6H10.382C10.19 4.85 9.914 4.13 9.554 3.464C10.658 3.842 11.576 4.604 12.152 5.6ZM8 2C4.682 2 2 4.7 2 8C2 9.5913 2.63214 11.1174 3.75736 12.2426C4.31451 12.7998 4.97595 13.2417 5.7039 13.5433C6.43185 13.8448 7.21207 14 8 14C9.5913 14 11.1174 13.3679 12.2426 12.2426C13.3679 11.1174 14 9.5913 14 8C14 7.21207 13.8448 6.43185 13.5433 5.7039C13.2417 4.97595 12.7998 4.31451 12.2426 3.75736C11.6855 3.20021 11.0241 2.75825 10.2961 2.45672C9.56815 2.15519 8.78793 2 8 2Z" fill="#5F6774"/>
</svg>
